<?xml version="1.0" encoding="UTF-8"?> <svg xmlns="http://www.w3.org/2000/svg" width="21" height="17" viewBox="0 0 21 17" fill="none"> <path d="M2.16671 16.8334C1.59379 16.8334 1.10351 16.6296 0.695874 16.222C0.287541 15.8136 0.083374 15.323 0.083374 14.7501V2.25008C0.083374 1.67716 0.287541 1.18689 0.695874 0.779248C1.10351 0.370915 1.59379 0.166748 2.16671 0.166748H18.8334C19.4063 0.166748 19.8969 0.370915 20.3053 0.779248C20.7129 1.18689 20.9167 1.67716 20.9167 2.25008V14.7501C20.9167 15.323 20.7129 15.8136 20.3053 16.222C19.8969 16.6296 19.4063 16.8334 18.8334 16.8334H2.16671ZM10.5 9.54175L2.16671 4.33341V14.7501H18.8334V4.33341L10.5 9.54175ZM10.5 7.45841L18.8334 2.25008H2.16671L10.5 7.45841ZM2.16671 4.33341V2.25008V14.7501V4.33341Z" fill="white"></path> </svg> 