<?xml version="1.0" encoding="UTF-8"?> <svg xmlns="http://www.w3.org/2000/svg" width="16" height="26" viewBox="0 0 16 26" fill="none"> <path d="M12.9231 0H3.07692C2.26087 0 1.47824 0.311282 0.90121 0.865366C0.324175 1.41945 0 2.17095 0 2.95455V23.0455C0 23.829 0.324175 24.5805 0.90121 25.1346C1.47824 25.6887 2.26087 26 3.07692 26H12.9231C13.7391 26 14.5218 25.6887 15.0988 25.1346C15.6758 24.5805 16 23.829 16 23.0455V2.95455C16 2.17095 15.6758 1.41945 15.0988 0.865366C14.5218 0.311282 13.7391 0 12.9231 0V0ZM8 24.8182C6.97846 24.8182 6.15385 24.0264 6.15385 23.0455C6.15385 22.0645 6.97846 21.2727 8 21.2727C9.02154 21.2727 9.84615 22.0645 9.84615 23.0455C9.84615 24.0264 9.02154 24.8182 8 24.8182ZM13.5385 20.0909H2.46154V3.54545H13.5385V20.0909Z" fill="white"></path> </svg> 