<?xml version="1.0" encoding="UTF-8"?> <svg xmlns="http://www.w3.org/2000/svg" width="15" height="22" viewBox="0 0 15 22" fill="none"> <path d="M15 7.76471C15 3.48118 11.6375 0 7.5 0C3.3625 0 0 3.48118 0 7.76471C0 13.5882 7.5 22 7.5 22C7.5 22 15 13.5882 15 7.76471ZM5 7.76471C5 6.34118 6.125 5.17647 7.5 5.17647C8.875 5.17647 10 6.34118 10 7.76471C10 8.45115 9.73661 9.10948 9.26777 9.59486C8.79893 10.0803 8.16304 10.3529 7.5 10.3529C6.83696 10.3529 6.20107 10.0803 5.73223 9.59486C5.26339 9.10948 5 8.45115 5 7.76471Z" fill="white"></path> </svg> 