<?xml version="1.0" encoding="UTF-8"?> <svg xmlns="http://www.w3.org/2000/svg" width="21" height="21" viewBox="0 0 21 21" fill="none"> <path d="M10.4896 0.083252C4.73962 0.083252 0.083374 4.74992 0.083374 10.4999C0.083374 16.2499 4.73962 20.9166 10.4896 20.9166C16.25 20.9166 20.9167 16.2499 20.9167 10.4999C20.9167 4.74992 16.25 0.083252 10.4896 0.083252ZM10.5 18.8333C5.89587 18.8333 2.16671 15.1041 2.16671 10.4999C2.16671 5.89575 5.89587 2.16659 10.5 2.16659C15.1042 2.16659 18.8334 5.89575 18.8334 10.4999C18.8334 15.1041 15.1042 18.8333 10.5 18.8333ZM11.0209 5.29159H9.45837V11.5416L14.9271 14.8228L15.7084 13.5416L11.0209 10.7603V5.29159Z" fill="white"></path> </svg> 